<svg id="Layer_2" data-name="Layer 2" xmlns="http://www.w3.org/2000/svg" xmlns:xlink="http://www.w3.org/1999/xlink" viewBox="0 0 400 300" width="406" height="306" class="illustration styles_illustrationTablet__1DWOa" _mstVisible="6"><defs _mstVisible="7"><linearGradient id="linear-gradient" x1="209.21" y1="267.06" x2="242.05" y2="236.27" gradientUnits="userSpaceOnUse" _mstVisible="8"><stop offset="0" stop-color="#d16550" _mstVisible="9"></stop><stop offset="1" stop-color="#783a2e" _mstVisible="9"></stop></linearGradient><linearGradient id="linear-gradient-2" x1="170.83" y1="242.18" x2="200.99" y2="213.89" xlink:href="#linear-gradient" _mstVisible="8"></linearGradient><linearGradient id="linear-gradient-3" x1="53.85" y1="210.42" x2="135.8" y2="128.48" gradientUnits="userSpaceOnUse" _mstVisible="8"><stop offset="0" stop-opacity="0" _mstVisible="9"></stop><stop offset="1" stop-color="#f15a24" _mstVisible="9"></stop></linearGradient><linearGradient id="linear-gradient-4" x1="305.24" y1="204.41" x2="335.41" y2="176.13" xlink:href="#linear-gradient" _mstVisible="8"></linearGradient></defs><title _mstVisible="7" _mstHash="296244" _mstTextHash="15600">PP</title><path d="M198.91,283.92,26.41,182c-5.49-3.08-10.2-8.15-4.85-11.46L194.69,70.74c2.6-1.61,6.54-2.66,9.18-1.13L384.94,174.7c5.49,3.19,6.48,12.1,1,15.29L221.65,283.76A22.94,22.94,0,0,1,198.91,283.92Z" fill="#d16550" _mstVisible="7"></path><path d="M256.29,235.11l-.72-9.79c-11.76,7.95-33.47,22.2-46.24,28.3-7.08,3.38-14,7-20.91,10.82l17.09,14.43s12.38-10.54,22.86-16.35,18.66-13,29.17-18.66Z" fill="url(#linear-gradient)" _mstVisible="7"></path><path d="M218.18,208.93l-9.06-.66c-11.76,7.95-25.13,13.07-37.9,19.17-7.08,3.38-14,7-20.91,10.82l17.09,14.43s12.38-10.54,22.86-16.35,22-14,32.51-19.69Z" fill="url(#linear-gradient-2)" _mstVisible="7"></path><path d="M209.88,205.71a45.82,45.82,0,0,1-4.08,4.73,79.35,79.35,0,0,1-9.56,5.43c-1.26.51-3,1.14-3,3.16s2.65,3.92,6.44,3.66,10.61-2.27,12.25-4,2.4-1.89,2.4-1.89,6.57,1.39,8.46-.13c1.46-1.17.37-7.53-.21-10.37A16.49,16.49,0,0,1,209.88,205.71Z" fill="#f3a05e" _mstVisible="7"></path><path d="M252.59,223.55s.12,4.6-.71,7-5.79,11.92-5,13.22a6.11,6.11,0,0,0,6.73,2.13c3.07-1.06,7.79-4.37,8.62-7s1.18-8.62,1.77-10.51,0-5.67,0-5.67Z" fill="#f3a05e" _mstVisible="7"></path><path d="M218.13,119.58c0,.92,4.28,22.4,7.26,29.27s12.84,29,12.84,29,11.35,40,11.35,45.1c0,0,7.77,5.38,15.53,0,0,0-1.79-15.23-1.79-20s-7.17-22.4-8.36-27.48-9.39-57.12-11.86-61.87S217.74,108.53,218.13,119.58Z" fill="#335a6b" _mstVisible="7"></path><path d="M203.89,108.53v25.69c0,12.55,4.78,26.88,4.48,32s0,40.32,0,40.32a14.46,14.46,0,0,0,14.66,0s2.35-24.79,2.65-29.27,0-32.26,0-37.34-2.29-25.12-7.57-29.44S203.89,108.53,203.89,108.53Z" fill="#335a6b" _mstVisible="7"></path><path d="M213.27,46.7s-6.95-.13-9.22,1.52S188.75,65,188.75,65s3.54,8,8.72,10.75h1.77s1.39,32.49,1.77,34.13c0,0-1-.1-.28,1.92s5.56,2.91,5.56,2.91,23.92,4.65,34,.1l2.78-1.26s1.64-3.79,1.26-4.93-3.79-5.56-3.79-5.56,7.78-22.8,7.78-31.87c0-5.44-2.47-11.87-6.26-15.41S226,46.69,226,46.69Z" fill="#68e1fd" _mstVisible="7"></path><path d="M214.59,46.66l.2,4.71s.73,4.66,7.74,3.71c0,0,5.44-1.59,5.17-4.94-.07-.89-.71-9.74-.71-9.74" fill="#f2c3bd" _mstVisible="7"></path><path d="M212.35,32.1a4,4,0,0,1-3.88-4.29c.08-3.88,2.43-5.82,4.45-5.82s1.62-4,8-3.32,7.36,2.91,7.36,2.91,5.42.73,6.31,5.74-2,9.95-3,10.35-.24,3.15-2.26,5.09a7.23,7.23,0,0,1-4.77,1.86" fill="#4d4030" _mstVisible="7"></path><path d="M211.13,30.67a23.36,23.36,0,0,1,0,4.84c-.31,1.61-2.36,9.83,4.56,14.81,0,0,6.91,1,10.37-7,0,0,1.19-10.38-.42-11.72s-2,2-4.92,1.34S213.81,29.61,211.13,30.67Z" fill="#f2c3bd" _mstVisible="7"></path><path d="M226.59,35.55c-1.15.61-1.64,2-2,3.14a.86.86,0,0,0-.45,1.56c1,.65,2.43,0,3.29-.57a3.24,3.24,0,0,0,1.61-3A1.6,1.6,0,0,0,226.59,35.55Z" fill="#f2c3bd" _mstVisible="7"></path><path d="M190.35,67c.47-1-4.36,4.51-6.47,4.36s-21.06-1.81-23.47-1.05-6,6-6.17,7.22.75,6.76,1.35,7.22a4,4,0,0,0,4.66,0,4.49,4.49,0,0,0,1.81-3.16s-1.5-2.26-.75-2.56,1.81.6,1.81.6,2-2,1.5-2.71l-.45-.75s18.35,7.37,23.62,6.47,9.78-6.38,9.78-6.38S189.14,69.55,190.35,67Z" fill="#f2c3bd" _mstVisible="7"></path><path d="M218.77,54.84s-4.92-3.78-5.91-2.73-1.59,6.79,0,7.65,5.42-2.48,5.42-2.48,1.91,5.35,3.92,4.59,2.68-7.55,1.82-8.31S218.77,54.84,218.77,54.84Z" fill="#f86959" _mstVisible="7"></path><path d="M214.83,46.22s-6.52,5.61-7.45,12.49S210,115.37,210,115.37l-3.71-.63s-3-50.19-2.4-56.33S211.16,46,211.16,46Z" fill="#335a6b" _mstVisible="7"></path><path d="M231.49,49.16s-5.37,4.32-6.69,10.46-.27,57.22-.27,57.22h3.17s.41-54,1-56.48a16.19,16.19,0,0,1,6.55-9.11Z" fill="#335a6b" _mstVisible="7"></path><path d="M226.48,35.5s-1,5-1.77,5.57c-1,.67-2.35,2.51-3.7,2.16a2.24,2.24,0,0,1-.66-.34c-1.4-.93-2.85-2.15-4.59-2.29-2-.17-3.88.5-4.39-.08a5.67,5.67,0,0,1-.76-2.09s-.12,5.75.56,7.59,1.72,4.36,5.35,5a7.92,7.92,0,0,0,7.94-3.26c2.36-3.52,2.36-11,2.36-11Z" fill="#4d4030" _mstVisible="7"></path><path d="M157.3,85.43c-.9-.21-1.55-.4-1.94-1.09a19.84,19.84,0,0,0,.22,2.88c.1,1.19,2,1.2,1.87,0A8.64,8.64,0,0,1,157.3,85.43Z" fill="#240804" _mstVisible="7"></path><path d="M160.82,78a2.15,2.15,0,0,0-.39,1.84c1.57.82,1.87,4.7,1.82,5.95s1.82,1.2,1.87,0C164.22,83.38,163.53,78.92,160.82,78Z" fill="#240804" _mstVisible="7"></path><path d="M188.47,106.61a2.83,2.83,0,0,0-4.11-2.24c-1.21-7.53-19.49-8.23-20.86.86,0,0-.33,10.19,7.67,11.4,5.82.88,10.11-1.16,12.08-5.52,1.33-.07,3,0,4.09-.74S188.66,107.89,188.47,106.61Zm-1.89,1.71c-.27.81-1.59.89-2.67.91a15.18,15.18,0,0,0,.42-2.31,1,1,0,0,0,.27-.38,1,1,0,0,1,1.7-.37A2.51,2.51,0,0,1,186.58,108.32Z" fill="#a7cf76" _mstVisible="7"></path><ellipse cx="173.97" cy="104.15" rx="8.53" ry="4.57" fill="#240804" _mstVisible="7"></ellipse><path d="M163.5,84.92s7.05-2,8.25,5.85c0,0-9.37,4.64-11,2.82S161.3,85.14,163.5,84.92Z" fill="#68887d" _mstVisible="7"></path><path d="M163.5,84.92c-.72,0-2.94,3.23-1.73,6.45s3.83,5.24,6.76,4.94c0,0-8.37,3-9.38,3.27s-4.24-.75-5.55-3.77-.2-6.05.81-6.86S163.5,84.92,163.5,84.92Z" fill="#b1d1e0" _mstVisible="7"></path><path d="M169.83,101.61a3.22,3.22,0,0,0,2.05-.34,49.65,49.65,0,0,0,.58-5.66c.21-4.07-.71-4.84-.71-4.84a2.88,2.88,0,0,0-3.83.61c-.53.61-1.11.1-2.49-.81s-3.66.81-3.66.81c1.31,3.33,2.14,3.38,4.49,5A11.57,11.57,0,0,1,169.83,101.61Z" fill="#f6eeee" _mstVisible="7"></path><path d="M228.73,80.24s-3.38,6.62-5.33,8.42-23,11.28-25,12-2.26,1.35-3.31,1.2-10.23-.15-10.68.75a2.59,2.59,0,0,0,0,2s-2.86,1.65-2.26,3.31,2.11,5.87,4.66,5.87,8.27-4.81,8.72-6c0,0,23.45-2,33.16-7.37s11.22-12.79,11.22-12.79S237.07,80.09,228.73,80.24Z" fill="#f2c3bd" _mstVisible="7"></path><path d="M81.93,215.08,130.27,184,57.85,165.74,30.12,184.16C48.29,193.49,64.48,204.48,81.93,215.08Z" fill="url(#linear-gradient-3)" _mstVisible="7"></path><polyline points="54.58 168.28 54.58 173.31 103.47 201.55 130.27 184 130.27 179.5" fill="#68e1fd" _mstVisible="7"></polyline><polygon points="109.11 129.43 109.11 166.68 97.45 172.2 97.45 127 109.11 129.43" fill="#68e1fd" _mstVisible="7"></polygon><polygon points="78.96 161.42 70.94 157.77 78.96 152.45 78.96 161.42" fill="#68e1fd" _mstVisible="7"></polygon><polyline points="52.8 168.28 52.8 173.31 102.83 201.55 130.27 184 130.27 179.5" fill="#1a7989" opacity="0.52" _mstVisible="7"></polyline><path d="M87.88,154.54l42.39,25-27.63,17.78-49.84-29S67,159.6,68,158.77l12.27-8" fill="#68e1fd" _mstVisible="7"></path><path d="M77.75,161.42V106.24s0-12.54,15-13.66l34.68,17.65v15.54l-13.08,7L96.68,127v45.2Z" fill="#68e1fd" _mstVisible="7"></path><ellipse cx="113.33" cy="88.17" rx="25.8" ry="14.56" fill="#e6e6e6" _mstVisible="7"></ellipse><path d="M138.22,92l-20.28,17.56h-7.09S95.13,98.42,90.43,94.89" fill="#e6e6e6" _mstVisible="7"></path><ellipse cx="113.33" cy="89.23" rx="21.66" ry="12.11" fill="#824434" _mstVisible="7"></ellipse><polygon points="109.11 131.07 109.47 166.66 96.6 172.2 96.6 127 109.11 131.07" fill="#1a7989" opacity="0.52" _mstVisible="7"></polygon><path d="M115.76,128v8.11s1.5,1.62,4.37,0V128Z" fill="#e0c3a5" _mstVisible="7"></path><path d="M104.43,162.65s4.71,16.55,4.91,16.8,4.16,5.43,13.69,1.09l4.35-16.93" fill="#8cc63f" _mstVisible="7"></path><ellipse cx="116.22" cy="162.65" rx="11.79" ry="4.88" fill="#527717" _mstVisible="7"></ellipse><path d="M115.76,136.09s-2.63,3.24-.79,5.33,1.92,3.71.93,6.78-2,7.24,1.16,8.1,2.46-5.9,2.21-7.87.25,1.23,2.21.37,1.6-3.57,0-6.27a13,13,0,0,1-1.36-6.43" fill="#5c2d1d" _mstVisible="7"></path><path d="M110.62,94.77s-4-4.22-6.88.6S111,98,110.62,94.77Z" fill="#3f170d" _mstVisible="7"></path><path d="M99.38,88.2s-3.89,4.33,1.15,6.82S102.55,87.59,99.38,88.2Z" fill="#3f170d" _mstVisible="7"></path><path d="M115.51,91s-3.89,4.33,1.15,6.82S118.68,90.43,115.51,91Z" fill="#3f170d" _mstVisible="7"></path><path d="M106.91,79.16s-.8,5.77,4.77,5S109.2,76.87,106.91,79.16Z" fill="#3f170d" _mstVisible="7"></path><path d="M119.25,83.24s-3.89,4.33,1.15,6.82S122.43,82.63,119.25,83.24Z" fill="#3f170d" _mstVisible="7"></path><path d="M103.68,82.88s-3.89,4.33,1.15,6.82S106.86,82.27,103.68,82.88Z" fill="#3f170d" _mstVisible="7"></path><path d="M117.3,87.05s-4-4.22-6.88.6S117.66,90.26,117.3,87.05Z" fill="#3f170d" _mstVisible="7"></path><path d="M126.86,81.75S123,86.08,128,88.56,130,81.14,126.86,81.75Z" fill="#3f170d" _mstVisible="7"></path><path d="M96.79,83.37s-2.24,2.49.66,3.93S98.62,83,96.79,83.37Z" fill="#3f170d" _mstVisible="7"></path><polygon points="77.75 161.42 69.55 157.77 77.75 152.45 77.75 161.42" fill="#1a7989" opacity="0.52" _mstVisible="7"></polygon><path d="M335.2,203c10.45-5.79,17.31-10.61,27.83-16.28l-5.32-10.1-44-3.22-37.06,21.38,30.31,25.59S324.72,208.8,335.2,203Z" fill="url(#linear-gradient-4)" _mstVisible="7"></path><polyline points="343.54 197.92 309.46 175.97 309.14 128.83 315.83 99.58 354.72 120.52 363.02 139.29 363.02 186.71 344.29 197.5" fill="#68e1fd" _mstVisible="7"></polyline><polygon points="363.02 139.29 343.54 151.55 343.54 197.92 363.23 186.71 363.02 139.29" opacity="0.61" _mstVisible="7"></polygon><polygon points="343.54 151.55 354.72 120.52 363.02 139.29 343.54 151.55" opacity="0.61" _mstVisible="7"></polygon><polygon points="336.08 153.09 314.52 140.87 314.52 171.02 336.08 183.66 336.08 153.09" fill="#fff" _mstVisible="7"></polygon></svg>